<svg width="100" height="48" viewBox="0 0 100 48" fill="none" xmlns="http://www.w3.org/2000/svg">
<path d="M32.6484 32.6089C32.6484 32.0952 32.7625 31.2391 32.9338 29.7551C33.105 28.271 34.0753 23.9902 37.8425 21.593C37.6712 21.593 37.3858 21.4788 37.2146 21.4788C36.7009 21.4788 35.1598 21.3647 32.9909 22.1637C33.847 20.851 37.0434 18.7391 38.242 18.1112C38.3562 17.9971 38.5274 17.94 38.5845 17.94C37.2146 13.545 34.3037 9.94913 30.1941 7.83726C27.6256 6.46739 24.9429 5.78247 21.347 5.66831H14.1552C8.39041 5.66831 5.76484 5.55415 3.71005 5.15461C1.99772 4.69799 0.456614 3.78475 0.456614 3.78475L0 3.49936L0.114154 4.01306C0.114154 4.18429 0.570771 8.06557 5.19406 11.4902C6.05022 12.1752 6.73515 12.803 6.73515 15.029V35.8624C6.73515 38.0884 6.27854 38.7163 5.25114 39.287C4.10959 39.972 1.82648 41.2848 1.82648 41.3418L1.02739 41.7984H19.8059C25.0571 41.7984 28.3676 40.9423 31.9064 38.545C32.5913 38.0884 33.2192 37.5747 33.7329 37.1752C33.3904 34.4925 33.847 32.0953 34.1895 30.7254C34.1324 30.6112 33.1621 31.4674 32.6484 32.6089ZM20.6621 33.0085H16.6096V14.5153H20.6621C25.9703 14.5153 28.9954 17.8829 28.9954 23.7619C28.9954 29.698 25.9703 33.0085 20.6621 33.0085ZM72.7169 37.6318C73.0594 36.9469 73.2306 36.0907 73.2306 35.2345C73.2306 34.3784 72.9452 33.5222 72.6027 32.8373L73.6301 33.0085C74.3151 33.1227 75.6279 33.9788 75.6279 35.2345C75.6279 36.7756 74.0868 37.4606 72.7169 37.6318ZM92.5799 38.4879C88.984 40.8852 85.7306 41.7414 80.4795 41.7414H80.3082C81.1644 40.714 81.621 39.3441 81.621 37.9743C81.621 35.9765 80.6507 34.2071 79.1096 33.0085H81.3356C86.6438 33.0085 89.669 29.6409 89.669 23.7619C89.669 17.8258 86.6438 14.5153 81.3356 14.5153H77.2831V16.8555C76.6553 16.7414 76.1416 16.6843 75.5708 16.6843C74.6005 16.6843 73.516 16.8555 73.2306 17.0268C74.3721 16.0564 75.6279 15.6569 76.484 15.4857C72.7169 14.6295 69.1781 16.7985 68.6644 17.3692C69.121 16.3989 69.9772 15.5427 70.548 14.972C69.3493 15.4286 68.2078 15.9994 67.2945 16.6272V15.0861C67.2945 12.7459 66.6667 12.1752 65.7534 11.5473C61.1301 8.17972 60.6735 4.24137 60.6735 4.07014L60.5594 3.55643L61.016 3.84182C61.016 3.84182 62.5571 4.86922 64.2694 5.21169C66.2671 5.66831 69.0069 5.72539 74.7146 5.72539H81.9064C85.5023 5.89662 88.1849 6.52447 90.7534 7.89434C96.5754 10.9195 100 16.7985 100 23.6478C100 27.8715 98.6301 31.9811 96.2329 34.892C95.4338 36.2619 94.121 37.4606 92.5799 38.4879ZM74.4292 31.4103C73.1164 31.4103 71.7466 31.6957 71.7466 31.6957C71.4612 31.4103 69.7489 30.1546 69.0069 29.9834C70.3767 31.4674 69.9772 33.0085 69.6347 33.5222C69.3493 33.9788 68.8356 34.2071 68.4361 34.2071C68.0936 34.2071 67.7512 34.093 67.4087 33.8647V25.4742C67.7512 25.0176 68.0936 24.5039 68.5502 24.1044C69.5206 22.9628 71.0616 22.2779 72.6027 22.2779C73.5731 22.2779 74.4863 22.5633 75.1142 23.077L75.6279 23.4195L76.0845 22.9628C76.3699 22.6774 76.9406 22.4491 77.5685 22.1637V32.0382C76.484 31.5815 75.5137 31.4103 74.4292 31.4103ZM72.7169 19.7665C69.5206 19.3099 64.669 21.4788 62.1575 24.561C62.6712 22.5062 64.8973 19.1386 67.637 17.5975C67.637 17.5975 66.2671 19.3099 66.8379 19.5953C67.6941 20.0519 69.9201 16.5131 72.8311 16.3989C72.8311 16.3989 70.6621 17.4263 71.1187 18.2254C71.4612 18.7391 72.9452 17.5405 75.3996 17.5405C78.4817 17.5405 81.2215 19.424 82.5343 20.908C80.3653 20.2802 76.3699 21.3647 75.1712 22.3921C73.3447 21.0222 69.863 21.1934 67.8653 23.5336C65.3539 26.3875 63.8128 29.698 63.4133 30.7254C62.5571 30.0405 61.758 29.4126 61.2443 29.0131C60.7877 28.6706 60.3881 28.4994 59.9315 28.3281C62.3288 24.9605 67.1233 19.9948 72.7169 19.7665ZM39.2694 10.1204C38.9269 6.06785 40.8105 3.84183 41.6667 2.92859C43.5502 0.930868 46.1187 -0.15361 50 0.0176225C55.9932 0.360088 58.9041 4.46968 58.9041 8.86465C58.9041 11.2048 57.7055 14.287 55.9932 16.2277C55.879 16.1135 55.7078 15.9423 55.6507 15.8852C54.5091 14.8578 52.911 13.545 51.8836 12.0039C53.9384 8.97881 53.0822 4.29844 49.3722 4.29844C47.032 4.29844 45.1484 6.69571 45.9475 9.60667C45.605 10.9195 45.4338 12.6318 45.6621 13.8875C42.9795 12.5176 42.1233 10.6911 41.6096 9.09297C40.9247 10.4628 40.468 12.3464 40.9817 14.1729C41.0959 14.3441 39.5548 12.9742 39.2694 10.1204ZM40.8105 17.4263C40.5251 18.3966 37.0434 19.424 35.331 21.1364C37.8995 20.6227 39.0982 21.0222 39.5548 22.1067C39.8402 22.9058 39.4406 23.9332 39.2694 25.1318C40.1256 24.1615 43.0365 22.2208 45.2055 21.7642C44.6918 21.593 43.379 21.3076 42.8653 21.3076C44.4064 19.4811 47.8311 18.9103 49.7146 19.3099C48.516 19.1957 46.1187 19.9377 45.1484 20.6797C46.0046 20.851 46.8036 21.0222 47.4886 21.3076C46.347 21.7642 44.9201 23.1341 44.4064 24.561C45.8904 23.5336 48.8585 23.7619 49.3722 25.9309C49.7146 27.4149 48.6872 28.6706 48.1735 28.956C48.6301 29.0701 49.6575 28.956 50.0571 28.6706C49.8858 29.2984 49.0297 30.3258 48.4018 30.4971C49.9429 30.4971 52.169 29.4697 52.7968 27.9857C52.7968 27.9857 51.8265 28.3281 51.4269 27.8715C50.9703 27.4149 51.5982 25.5313 51.5982 25.5313C51.5982 25.5313 50.9703 26.3304 50.4566 25.8738C49.9429 25.3601 50.6278 23.6478 50.9132 23.3053C50.3995 23.1341 49.0297 22.9628 48.4018 23.0199C50.1142 22.3921 53.9954 22.0496 54.395 22.8487C54.7374 23.4765 53.8813 24.6752 53.8813 24.6752C54.5662 24.561 56.5639 24.6752 57.2489 25.4742C57.9338 26.3304 57.5342 27.472 57.5342 27.472C59.0753 26.6729 60.4452 24.2756 60.1027 21.8784C59.9315 22.3921 59.2466 23.1911 58.5617 23.3624C58.6758 22.5633 58.0479 22.1638 57.5342 21.9925C57.8196 20.5085 57.1918 18.6249 55.0228 16.5701C53.1963 14.7437 49.7717 12.3464 49.9429 9.20712C49.4292 9.89206 48.9726 11.8898 49.4863 12.9742C50.9703 14.6866 54.1096 16.5701 54.9087 19.4811C53.5388 16.0564 46.8607 13.3738 47.089 8.69342C46.2329 9.54958 45.7192 12.9172 46.4041 14.6295C47.7169 15.4286 48.8014 16.6843 48.9726 17.8829C47.774 15.1432 42.8653 14.6295 41.4954 11.3761C41.153 12.5747 41.3242 14.0587 42.0091 14.972C42.0091 14.972 40.8105 14.5153 38.242 14.6295C39.1553 14.9149 40.9817 16.456 40.8105 17.4263ZM54.6804 21.3647C53.1963 21.3647 52.7968 20.2231 52.4543 19.0245C54.1667 19.7665 54.6804 21.3647 54.6804 21.3647ZM73.4018 43.7391C74.4292 44.7094 76.9406 45.3943 78.1964 44.7665C77.3973 46.1364 73.8014 48.0199 70.4909 47.1637C67.2945 46.3076 65.8676 43.2825 65.8676 41.3418C64.3265 42.8829 64.726 45.2802 65.8676 46.3076C64.669 45.9651 62.7854 44.6523 62.4429 42.3692C62.1575 40.3715 63.2991 38.0884 61.2443 36.2619C60.0457 35.1204 58.048 33.5793 56.8493 32.666C54.2808 30.6683 55.1941 29.1272 54.6804 28.0998C54.2237 27.2437 53.1393 26.787 52.5114 26.045C51.8265 25.2459 51.8836 24.1615 52.226 23.5336C52.1119 24.3898 52.7397 25.0747 53.5959 25.4172C54.5662 25.7596 55.3082 25.5313 56.1644 25.9309C57.1347 26.5587 56.6781 27.9857 57.363 28.6135C57.9909 29.0701 59.589 28.4423 60.9018 29.5838C62.2717 30.7254 65.2968 33.1797 66.5525 34.2071C68.8927 36.0907 71.29 33.9217 70.4909 31.6957C72.8881 33.0656 73.1735 37.0039 71.1758 38.3738C73.0594 38.8304 76.4269 37.9172 76.4269 35.2916C76.4269 33.6363 74.8858 32.4377 73.8584 32.2665C77.7397 31.924 81.0502 34.6067 81.0502 38.0313C80.9361 41.5131 77.3973 44.2528 73.4018 43.7391ZM60.6164 36.7185C60.7306 36.8327 60.7877 36.8898 60.9018 37.0039C58.847 41.2277 54.9658 46.593 47.6027 46.593C44.9201 46.593 42.5228 45.6226 40.8105 44.3669C40.1827 43.9103 39.6689 43.3966 39.2694 42.8259C38.984 42.4834 38.7557 42.198 38.4703 41.8555C38.1279 41.3989 37.8425 41.3989 37.6712 41.6843C37.3288 42.198 37.9566 43.8532 37.9566 43.8532C32.1347 38.3738 35.1027 30.3259 35.2169 29.9834C35.5594 28.956 35.2169 28.7847 34.8744 28.956C34.3607 29.1272 33.7329 29.9834 33.7329 29.9834C34.1895 25.0747 38.6986 22.1067 38.6986 22.1067L38.8128 22.2208C39.3265 23.0199 38.5274 23.9332 38.4703 27.0153C39.3265 25.8167 42.6941 23.4765 44.5776 22.7916C43.9498 23.5907 43.4361 24.6752 43.4361 26.3304C43.4361 26.3304 44.8059 24.7893 46.5183 24.7893C46.9749 24.7893 47.3744 24.9035 47.7169 25.0747C41.2101 31.4103 43.9498 39.287 49.4292 39.287C52.5114 39.287 55.5936 35.8624 56.9064 33.5222C57.8767 34.3784 59.4749 35.7482 60.6164 36.7185Z" fill="#EA3535"/>
</svg>
