<svg width="48" height="49" viewBox="0 0 48 49" fill="none" xmlns="http://www.w3.org/2000/svg">
<path d="M43.28 7.78L40.72 5.22C40.495 4.99263 40.2271 4.81214 39.9319 4.68896C39.6366 4.56577 39.3199 4.50235 39 4.50235C38.6801 4.50235 38.3634 4.56577 38.0681 4.68896C37.7729 4.81214 37.505 4.99263 37.28 5.22L4.72 37.78C4.49263 38.005 4.31214 38.2729 4.18896 38.5681C4.06577 38.8634 4.00235 39.1801 4.00235 39.5C4.00235 39.8199 4.06577 40.1366 4.18896 40.4319C4.31214 40.7271 4.49263 40.995 4.72 41.22L7.28 43.78C7.50364 44.0098 7.77107 44.1925 8.06649 44.3172C8.36191 44.4419 8.67933 44.5062 9 44.5062C9.32067 44.5062 9.63809 44.4419 9.93351 44.3172C10.2289 44.1925 10.4964 44.0098 10.72 43.78L43.28 11.22C43.5098 10.9964 43.6925 10.7289 43.8172 10.4335C43.9419 10.1381 44.0062 9.82067 44.0062 9.5C44.0062 9.17933 43.9419 8.86191 43.8172 8.56649C43.6925 8.27107 43.5098 8.00364 43.28 7.78Z" stroke="#FAFAFA" stroke-width="3" stroke-linecap="round" stroke-linejoin="round"/>
<path d="M28 14.5L34 20.5" stroke="#FAFAFA" stroke-width="3" stroke-linecap="round" stroke-linejoin="round"/>
<path d="M10 12.5V20.5" stroke="#FAFAFA" stroke-width="3" stroke-linecap="round" stroke-linejoin="round"/>
<path d="M38 28.5V36.5" stroke="#FAFAFA" stroke-width="3" stroke-linecap="round" stroke-linejoin="round"/>
<path d="M20 4.5V8.5" stroke="#FAFAFA" stroke-width="3" stroke-linecap="round" stroke-linejoin="round"/>
<path d="M14 16.5H6" stroke="#FAFAFA" stroke-width="3" stroke-linecap="round" stroke-linejoin="round"/>
<path d="M42 32.5H34" stroke="#FAFAFA" stroke-width="3" stroke-linecap="round" stroke-linejoin="round"/>
<path d="M22 6.5H18" stroke="#FAFAFA" stroke-width="3" stroke-linecap="round" stroke-linejoin="round"/>
</svg>
